HIERARCHY
ROOT Hips
{
    OFFSET 0.000000 0.000000 0.000000
    CHANNELS 6 Xposition Yposition Zposition Zrotation Yrotation Xrotation
    JOINT Chest
    {
        OFFSET 0.000000 1.634758 -0.000000
        CHANNELS 3 Zrotation Yrotation Xrotation
        JOINT Chest2
        {
            OFFSET 0.000000 2.197341 0.000000
            CHANNELS 3 Zrotation Yrotation Xrotation
            JOINT Neck
            {
                OFFSET 0.000000 0.961544 0.000000
                CHANNELS 3 Zrotation Yrotation Xrotation
                JOINT Head
                {
                    OFFSET 0.000000 0.632542 -0.032565
                    CHANNELS 3 Zrotation Yrotation Xrotation
                    End Site
                    {
                        OFFSET -0.000001 0.439502 2.922845
                    }
                }
            }
            JOINT LeftCollar
            {
                OFFSET 0.167536 0.778237 -0.168280
                CHANNELS 3 Zrotation Yrotation Xrotation
                JOINT LeftShoulder
                {
                    OFFSET 0.831514 -0.002900 0.006458
                    CHANNELS 3 Zrotation Yrotation Xrotation
                    JOINT LeftElbow
                    {
                        OFFSET 2.272872 -0.026639 0.059314
                        CHANNELS 3 Zrotation Yrotation Xrotation
                        JOINT LeftWrist
                        {
                            OFFSET 2.081982 -0.024402 0.054333
                            CHANNELS 3 Zrotation Yrotation Xrotation
                            JOINT LeftHandThumb1
                            {
                                OFFSET 0.218903 -0.128645 0.283837
                                CHANNELS 3 Zrotation Yrotation Xrotation
                                JOINT LeftHandThumb2
                                {
                                    OFFSET 0.137157 -0.025101 0.077902
                                    CHANNELS 3 Zrotation Yrotation Xrotation
                                    JOINT LeftHandThumb3
                                    {
                                        OFFSET 0.165861 -0.067014 0.039226
                                        CHANNELS 3 Zrotation Yrotation Xrotation
                                        End Site
                                        {
                                            OFFSET 0.241157 -0.045065 0.107930
                                        }
                                    }
                                }
                            }
                            JOINT LeftHandFore1
                            {
                                OFFSET 0.767340 -0.016076 0.196678
                                CHANNELS 3 Zrotation Yrotation Xrotation
                                JOINT LeftHandFore2
                                {
                                    OFFSET 0.212944 -0.039015 0.011315
                                    CHANNELS 3 Zrotation Yrotation Xrotation
                                    JOINT LeftHandFore3
                                    {
                                        OFFSET 0.126107 -0.028526 0.006804
                                        CHANNELS 3 Zrotation Yrotation Xrotation
                                        End Site
                                        {
                                            OFFSET 0.190484 -0.032402 0.005737
                                        }
                                    }
                                }
                            }
                            JOINT LeftHandMiddle1
                            {
                                OFFSET 0.709887 -0.008320 0.018526
                                CHANNELS 3 Zrotation Yrotation Xrotation
                                JOINT LeftHandMiddle2
                                {
                                    OFFSET 0.209127 -0.127483 0.008816
                                    CHANNELS 3 Zrotation Yrotation Xrotation
                                    JOINT LeftHandMiddle3
                                    {
                                        OFFSET 0.100261 -0.106283 0.005918
                                        CHANNELS 3 Zrotation Yrotation Xrotation
                                        End Site
                                        {
                                            OFFSET 0.122274 -0.201419 0.010483
                                        }
                                    }
                                }
                            }
                            JOINT LeftHandRing1
                            {
                                OFFSET 0.743817 -0.005823 -0.153668
                                CHANNELS 3 Zrotation Yrotation Xrotation
                                JOINT LeftHandRing2
                                {
                                    OFFSET 0.312797 -0.163728 -0.009197
                                    CHANNELS 3 Zrotation Yrotation Xrotation
                                    JOINT LeftHandRing3
                                    {
                                        OFFSET 0.077856 -0.111983 0.001957
                                        CHANNELS 3 Zrotation Yrotation Xrotation
                                        End Site
                                        {
                                            OFFSET 0.046861 -0.110548 0.001738
                                        }
                                    }
                                }
                            }
                            JOINT LeftHandLittle1
                            {
                                OFFSET 0.689408 -0.053302 -0.308304
                                CHANNELS 3 Zrotation Yrotation Xrotation
                                JOINT LeftHandLittle2
                                {
                                    OFFSET 0.187514 -0.050420 -0.018722
                                    CHANNELS 3 Zrotation Yrotation Xrotation
                                    JOINT LeftHandLittle3
                                    {
                                        OFFSET 0.110150 -0.047159 -0.011802
                                        CHANNELS 3 Zrotation Yrotation Xrotation
                                        End Site
                                        {
                                            OFFSET 0.184611 -0.045535 -0.011576
                                        }
                                    }
                                }
                            }
                        }
                    }
                }
            }
            JOINT RightCollar
            {
                OFFSET -0.167536 0.778237 -0.168280
                CHANNELS 3 Zrotation Yrotation Xrotation
                JOINT RightShoulder
                {
                    OFFSET -0.831514 -0.002900 0.006457
                    CHANNELS 3 Zrotation Yrotation Xrotation
                    JOINT RightElbow
                    {
                        OFFSET -2.272872 -0.026639 0.059313
                        CHANNELS 3 Zrotation Yrotation Xrotation
                        JOINT RightWrist
                        {
                            OFFSET -2.081982 -0.024402 0.054331
                            CHANNELS 3 Zrotation Yrotation Xrotation
                            JOINT RightHandThumb1
                            {
                                OFFSET -0.218911 -0.128571 0.283837
                                CHANNELS 3 Zrotation Yrotation Xrotation
                                JOINT RightHandThumb2
                                {
                                    OFFSET -0.137157 -0.025101 0.077902
                                    CHANNELS 3 Zrotation Yrotation Xrotation
                                    JOINT RightHandThumb3
                                    {
                                        OFFSET -0.165861 -0.067014 0.039226
                                        CHANNELS 3 Zrotation Yrotation Xrotation
                                        End Site
                                        {
                                            OFFSET -0.229436 -0.065997 0.121819
                                        }
                                    }
                                }
                            }
                            JOINT RightHandFore1
                            {
                                OFFSET -0.767344 -0.015991 0.196679
                                CHANNELS 3 Zrotation Yrotation Xrotation
                                JOINT RightHandFore2
                                {
                                    OFFSET -0.212956 -0.038967 0.011314
                                    CHANNELS 3 Zrotation Yrotation Xrotation
                                    JOINT RightHandFore3
                                    {
                                        OFFSET -0.126114 -0.028498 0.006722
                                        CHANNELS 3 Zrotation Yrotation Xrotation
                                        End Site
                                        {
                                            OFFSET -0.190043 -0.032287 0.014424
                                        }
                                    }
                                }
                            }
                            JOINT RightHandMiddle1
                            {
                                OFFSET -0.709887 -0.008302 0.018525
                                CHANNELS 3 Zrotation Yrotation Xrotation
                                JOINT RightHandMiddle2
                                {
                                    OFFSET -0.209111 -0.127501 0.008816
                                    CHANNELS 3 Zrotation Yrotation Xrotation
                                    JOINT RightHandMiddle3
                                    {
                                        OFFSET -0.100331 -0.106323 0.003652
                                        CHANNELS 3 Zrotation Yrotation Xrotation
                                        End Site
                                        {
                                            OFFSET -0.122536 -0.201510 0.002965
                                        }
                                    }
                                }
                            }
                            JOINT RightHandRing1
                            {
                                OFFSET -0.743819 -0.005785 -0.153669
                                CHANNELS 3 Zrotation Yrotation Xrotation
                                JOINT RightHandRing2
                                {
                                    OFFSET -0.312809 -0.163706 -0.009196
                                    CHANNELS 3 Zrotation Yrotation Xrotation
                                    JOINT RightHandRing3
                                    {
                                        OFFSET -0.077666 -0.111584 -0.011046
                                        CHANNELS 3 Zrotation Yrotation Xrotation
                                        End Site
                                        {
                                            OFFSET -0.046690 -0.110188 -0.009945
                                        }
                                    }
                                }
                            }
                            JOINT RightHandLittle1
                            {
                                OFFSET -0.689403 -0.053298 -0.308303
                                CHANNELS 3 Zrotation Yrotation Xrotation
                                JOINT RightHandLittle2
                                {
                                    OFFSET -0.187518 -0.050415 -0.018723
                                    CHANNELS 3 Zrotation Yrotation Xrotation
                                    JOINT RightHandLittle3
                                    {
                                        OFFSET -0.110149 -0.047154 -0.011798
                                        CHANNELS 3 Zrotation Yrotation Xrotation
                                        End Site
                                        {
                                            OFFSET -0.183446 -0.044965 -0.024786
                                        }
                                    }
                                }
                            }
                        }
                    }
                }
            }
        }
    }
    JOINT LeftHip
    {
        OFFSET 0.685143 0.673822 -0.044491
        CHANNELS 3 Zrotation Yrotation Xrotation
        JOINT LeftKnee
        {
            OFFSET 0.085364 -3.750208 0.017676
            CHANNELS 3 Zrotation Yrotation Xrotation
            JOINT LeftAnkle
            {
                OFFSET 0.094583 -4.155206 0.019585
                CHANNELS 3 Zrotation Yrotation Xrotation
                JOINT LeftToe
                {
                    OFFSET -0.000000 -0.395925 0.621478
                    CHANNELS 3 Zrotation Yrotation Xrotation
                    End Site
                    {
                        OFFSET -0.000000 -0.077878 0.321152
                    }
                }
            }
        }
    }
    JOINT RightHip
    {
        OFFSET -0.685143 0.673822 -0.044492
        CHANNELS 3 Zrotation Yrotation Xrotation
        JOINT RightKnee
        {
            OFFSET -0.085364 -3.750208 0.017677
            CHANNELS 3 Zrotation Yrotation Xrotation
            JOINT RightAnkle
            {
                OFFSET -0.094583 -4.155206 0.019585
                CHANNELS 3 Zrotation Yrotation Xrotation
                JOINT RightToe
                {
                    OFFSET -0.000000 -0.395925 0.621478
                    CHANNELS 3 Zrotation Yrotation Xrotation
                    End Site
                    {
                        OFFSET -0.000000 -0.077878 0.321152
                    }
                }
            }
        }
    }
}
MOTION
Frames: 4
Frame Time: 0.033333
6.261834 8.463611 -0.809576 157.695374 77.797386 159.115906 -3.640743 6.787870 -4.976762 -1.157350 -0.946519 -2.827087 2.400929 0.814597 10.922297 0.007492 -0.145355 23.125380 -6.055399 -9.799474 -0.133048 -58.033169 -17.663218 -5.495033 1.923406 -75.080353 -2.510170 -28.758989 -6.882699 -5.960972 -0.000009 -0.000007 0.000000 0.000003 0.000001 -0.000007 0.000003 0.000005 0.000003 -0.000009 -0.000008 0.000007 0.000003 0.000001 -0.000002 -0.000002 -0.000000 -0.000003 -0.000027 -0.000007 0.000010 -0.000014 -0.000000 0.000003 -0.000007 -0.000001 -0.000002 -0.000002 -0.000006 0.000005 0.000017 -0.000000 0.000002 -0.000009 -0.000000 -0.000003 -0.000005 -0.000010 0.000009 0.000000 -0.000001 0.000002 0.000000 -0.000000 0.000000 4.971928 12.631323 0.037073 67.805229 26.650288 -8.060852 -1.943527 75.197510 -2.530988 27.861712 7.473858 -6.821059 0.000002 0.000006 -0.000010 0.000005 -0.000000 -0.000001 0.000000 -0.000006 0.000002 0.000002 0.000002 0.000004 0.000000 -0.000000 0.000001 0.000005 0.000003 0.000000 0.000009 -0.000003 0.000000 0.000015 0.000004 0.000003 0.000010 0.000000 0.000001 0.000003 -0.000001 0.000003 -0.000014 -0.000000 -0.000001 0.000009 0.000000 0.000002 0.000007 -0.000003 0.000004 0.000002 -0.000001 -0.000000 0.000003 -0.000001 0.000001 -2.071331 -0.756704 -16.578060 0.132859 0.573459 26.085907 7.737876 12.518842 -8.066269 0.000002 0.000005 0.000005 9.810186 -0.497135 16.311083 0.000001 -0.000000 -0.000001 -6.404618 -6.827122 8.041695 -0.114503 2.298135 -16.483755
6.306289 8.463852 -0.812117 158.970840 77.184792 159.234055 -2.802018 7.047220 -4.023104 -0.873695 -1.018104 -3.314670 2.396814 0.865775 11.188702 0.010215 -0.198274 23.627516 -5.258015 -9.487000 -0.126864 -64.352081 -17.724283 -8.580958 5.251591 -83.515244 -5.888599 -28.720911 -6.808949 -5.796798 -0.000020 -0.000006 0.000000 0.000000 -0.000000 -0.000003 0.000002 0.000000 0.000003 -0.000009 -0.000012 -0.000001 -0.000002 -0.000002 0.000002 0.000002 -0.000003 -0.000002 -0.000027 -0.000003 0.000007 -0.000017 -0.000005 -0.000003 -0.000005 -0.000000 0.000000 -0.000002 -0.000011 -0.000001 0.000019 -0.000001 0.000000 -0.000012 0.000001 0.000000 -0.000009 -0.000010 0.000001 0.000000 -0.000000 0.000000 0.000002 0.000002 0.000001 3.245420 12.443472 0.015200 66.623581 29.024279 -8.939185 -6.190348 84.402069 -6.832672 27.795326 7.445836 -6.755062 0.000009 0.000002 -0.000014 0.000003 0.000003 0.000003 0.000002 -0.000001 0.000003 0.000000 0.000005 0.000002 0.000002 -0.000002 0.000004 0.000005 0.000002 -0.000003 0.000020 -0.000002 -0.000005 0.000015 0.000003 -0.000001 0.000010 0.000001 0.000004 0.000010 0.000005 -0.000003 -0.000015 0.000002 -0.000004 0.000012 -0.000003 0.000007 0.000003 -0.000001 0.000007 0.000003 -0.000000 -0.000003 -0.000002 0.000001 -0.000002 -2.011858 -0.739800 -15.314428 0.133821 0.575417 26.181808 7.539869 12.277592 -8.473549 -0.000003 -0.000003 -0.000006 10.021294 -0.522592 17.625467 0.000000 -0.000000 -0.000002 -6.550931 -7.376996 8.074031 -0.100520 2.221579 -16.221975
6.348990 8.464800 -0.815590 160.119461 76.541199 159.242645 -1.978928 7.292184 -3.081372 -0.613246 -1.080680 -3.797822 2.389217 0.889483 11.450944 0.015180 -0.294644 24.115812 -4.402844 -9.132828 -0.116776 -69.861237 -18.570345 -10.090194 151.770767 -88.556572 -152.453278 -28.664883 -6.716839 -5.631244 -0.000003 -0.000002 0.000014 0.000000 0.000001 -0.000003 0.000002 -0.000000 0.000000 0.000002 0.000002 0.000001 0.000002 0.000003 0.000000 0.000000 -0.000001 -0.000003 -0.000026 -0.000002 0.000003 -0.000010 0.000005 -0.000003 -0.000009 -0.000001 -0.000003 0.000003 -0.000005 -0.000003 0.000015 0.000001 0.000002 -0.000009 0.000003 0.000000 0.000009 0.000001 0.000007 0.000003 -0.000000 -0.000003 0.000002 -0.000002 -0.000003 2.090923 12.143784 -0.000661 67.233223 30.965176 -10.708144 -140.370422 88.937950 -141.050156 27.698172 7.411808 -6.690758 0.000003 0.000009 -0.000019 0.000000 0.000001 -0.000004 -0.000002 -0.000002 0.000003 0.000000 0.000005 0.000004 0.000002 -0.000001 0.000000 0.000003 -0.000000 -0.000003 0.000012 0.000007 -0.000001 0.000019 -0.000001 0.000004 0.000014 0.000003 -0.000002 0.000003 0.000013 0.000002 -0.000010 -0.000003 -0.000005 0.000009 -0.000003 -0.000001 -0.000002 0.000008 0.000004 -0.000002 -0.000001 -0.000002 0.000002 0.000001 0.000003 -1.965437 -0.722727 -14.058670 0.134370 0.576533 26.236519 7.346105 12.005779 -8.856730 0.000001 0.000002 0.000005 10.243994 -0.547036 18.905952 0.000000 -0.000000 -0.000000 -6.720673 -7.954424 8.127432 -0.086860 2.140861 -15.954511
6.389219 8.466385 -0.819713 161.171844 75.869766 159.195206 -1.188909 7.540412 -2.173511 -0.381662 -1.137262 -4.265564 2.377051 0.882432 11.703181 0.022933 -0.445225 24.578377 -3.519703 -8.765100 -0.103662 -72.907982 -19.930515 -9.589195 174.565262 -81.931976 -175.287796 -28.592657 -6.607335 -5.467715 -0.000003 -0.000010 0.000003 0.000000 -0.000006 -0.000003 0.000003 0.000003 0.000002 -0.000003 -0.000012 0.000011 0.000002 -0.000002 0.000000 0.000002 -0.000002 0.000000 -0.000026 -0.000009 0.000015 -0.000012 -0.000001 0.000003 -0.000007 0.000001 -0.000004 0.000007 -0.000014 0.000008 0.000017 -0.000004 0.000004 -0.000012 -0.000004 0.000001 -0.000007 -0.000009 0.000015 0.000002 0.000005 0.000002 0.000002 -0.000003 -0.000003 1.576543 11.727073 -0.006531 70.866356 31.177830 -12.541892 -173.043671 83.888748 -173.754517 27.579359 7.371614 -6.627563 0.000002 0.000012 -0.000006 0.000002 -0.000000 -0.000003 0.000005 -0.000007 0.000000 -0.000002 0.000005 0.000010 0.000000 -0.000002 -0.000003 -0.000005 0.000003 0.000003 0.000015 0.000003 0.000005 0.000010 0.000003 0.000002 0.000017 -0.000001 0.000001 0.000005 0.000003 0.000007 -0.000012 -0.000000 0.000001 0.000010 -0.000002 0.000001 0.000003 0.000006 0.000010 -0.000002 -0.000001 0.000004 0.000000 0.000001 0.000002 -1.925920 -0.706192 -12.840647 0.134564 0.576926 26.255737 7.156878 11.703837 -9.212680 0.000000 -0.000000 0.000001 10.483358 -0.569979 20.125280 0.000000 -0.000000 -0.000001 -6.916992 -8.556463 8.206750 -0.073810 2.056226 -15.686872
